# xmcd CD database file
#
# Track frame offsets:
#	150
#	16515
#	29167
#
# Disc length: 711 seconds
#
# Revision: 0
# Processed by: cddbd v1.5.1PL0 Copyright (c) Steve Scherf et al.
# Submitted via: CDex 1.51
#
DISCID=1902c503
DTITLE=斜陽 - demo#01
DYEAR=2005
DGENRE=オルタナティブ (一般)
TTITLE0=種
TTITLE1=ハローマイガール
TTITLE2=掌
EXTD=YEAR: 2005
EXTT0=
EXTT1=
EXTT2=
PLAYORDER=
